<?xml version="1.0" encoding="UTF-8" standalone="no"?>
<!-- Created with Inkscape (http://www.inkscape.org/) -->

<svg
   xmlns:dc="http://purl.org/dc/elements/1.1/"
   xmlns:cc="http://creativecommons.org/ns#"
   xmlns:rdf="http://www.w3.org/1999/02/22-rdf-syntax-ns#"
   xmlns:svg="http://www.w3.org/2000/svg"
   xmlns="http://www.w3.org/2000/svg"
   xmlns:sodipodi="http://sodipodi.sourceforge.net/DTD/sodipodi-0.dtd"
   xmlns:inkscape="http://www.inkscape.org/namespaces/inkscape"
   version="1.1"
   width="64"
   height="64"
   id="svg2"
   style="display:inline"
   inkscape:version="0.91 r13725"
   sodipodi:docname="meteostanciya.svg">
  <metadata
     id="metadata3342">
    <rdf:RDF>
      <cc:Work
         rdf:about="">
        <dc:format>image/svg+xml</dc:format>
        <dc:type
           rdf:resource="http://purl.org/dc/dcmitype/StillImage" />
        <dc:title></dc:title>
      </cc:Work>
    </rdf:RDF>
  </metadata>
  <sodipodi:namedview
     pagecolor="#ffffff"
     bordercolor="#666666"
     borderopacity="1"
     objecttolerance="10"
     gridtolerance="10"
     guidetolerance="10"
     inkscape:pageopacity="0"
     inkscape:pageshadow="2"
     inkscape:window-width="1658"
     inkscape:window-height="978"
     id="namedview3340"
     showgrid="false"
     inkscape:zoom="10.774876"
     inkscape:cx="19.957067"
     inkscape:cy="34.731783"
     inkscape:window-x="269"
     inkscape:window-y="50"
     inkscape:window-maximized="0"
     inkscape:current-layer="svg2" />
  <defs
     id="defs4">
    <inkscape:path-effect
       effect="spiro"
       id="path-effect4162"
       is_visible="true" />
    <inkscape:path-effect
       effect="spiro"
       id="path-effect4158"
       is_visible="true" />
    <inkscape:path-effect
       effect="spiro"
       id="path-effect4248"
       is_visible="true" />
    <inkscape:path-effect
       effect="spiro"
       id="path-effect4244"
       is_visible="true" />
    <inkscape:path-effect
       effect="spiro"
       id="path-effect4240"
       is_visible="true" />
    <inkscape:path-effect
       effect="spiro"
       id="path-effect4236"
       is_visible="true" />
    <inkscape:path-effect
       effect="spiro"
       id="path-effect4232"
       is_visible="true" />
    <inkscape:path-effect
       effect="spiro"
       id="path-effect4228"
       is_visible="true" />
    <inkscape:path-effect
       effect="spiro"
       id="path-effect4224"
       is_visible="true" />
    <inkscape:path-effect
       effect="spiro"
       id="path-effect4220"
       is_visible="true" />
    <inkscape:path-effect
       effect="spiro"
       id="path-effect4216"
       is_visible="true" />
    <inkscape:path-effect
       effect="spiro"
       id="path-effect4212"
       is_visible="true" />
  </defs>
  <path
     style="fill:none;fill-rule:evenodd;stroke:#000000;stroke-width:1.46342075px;stroke-linecap:butt;stroke-linejoin:miter;stroke-opacity:1"
     d="M 31.232578,38.160539 16.647979,61.773703"
     id="path4210"
     inkscape:path-effect="#path-effect4212"
     inkscape:original-d="M 31.232578,38.160539 16.647979,61.773703"
     inkscape:connector-curvature="0" />
  <path
     style="fill:none;fill-rule:evenodd;stroke:#000000;stroke-width:3;stroke-linecap:butt;stroke-linejoin:miter;stroke-miterlimit:4;stroke-dasharray:none;stroke-opacity:1"
     d="m 48.065446,63.303483 -1.08593,-1.456796 -16.072,-25.350713"
     id="path4214"
     inkscape:path-effect="#path-effect4216"
     inkscape:original-d="m 48.065446,63.303483 -1.08593,-1.456796 C 41.962481,53.891428 31.493385,24.510983 30.907516,36.495974"
     inkscape:connector-curvature="0"
     sodipodi:nodetypes="ccc" />
  <path
     style="fill:none;fill-rule:evenodd;stroke:#000000;stroke-width:1.46342075px;stroke-linecap:butt;stroke-linejoin:miter;stroke-opacity:1"
     d="M 31.232578,9.3385919 31.579831,39.202297"
     id="path4218"
     inkscape:path-effect="#path-effect4220"
     inkscape:original-d="M 31.232578,9.3385919 31.579831,39.202297"
     inkscape:connector-curvature="0" />
  <path
     style="fill:none;fill-rule:evenodd;stroke:#000000;stroke-width:1.46342075px;stroke-linecap:butt;stroke-linejoin:miter;stroke-opacity:1"
     d="M 19.77325,9.3385919 44.080917,9.6858441"
     id="path4222"
     inkscape:path-effect="#path-effect4224"
     inkscape:original-d="M 19.77325,9.3385919 44.080917,9.6858441"
     inkscape:connector-curvature="0" />
  <path
     style="fill:none;fill-rule:evenodd;stroke:#000000;stroke-width:1.46342075px;stroke-linecap:butt;stroke-linejoin:miter;stroke-opacity:1"
     d="M 44.080917,8.9913397 54.151236,16.978143"
     id="path4230"
     inkscape:path-effect="#path-effect4232"
     inkscape:original-d="M 44.080917,8.9913397 54.151236,16.978143"
     inkscape:connector-curvature="0" />
  <g
     id="g4334"
     style="fill:#000000;fill-opacity:1"
     transform="matrix(1.4634208,0,0,1.4634208,-15.951714,-13.239253)">
    <path
       sodipodi:nodetypes="cc"
       inkscape:connector-curvature="0"
       inkscape:original-d="m 24.174668,10.445078 -6.952663,4.90006"
       inkscape:path-effect="#path-effect4236"
       id="path4234"
       d="m 24.174668,10.445078 -6.952663,4.90006"
       style="fill:#000000;fill-opacity:1;fill-rule:evenodd;stroke:#000000;stroke-width:1px;stroke-linecap:butt;stroke-linejoin:miter;stroke-opacity:1" />
    <path
       sodipodi:nodetypes="cc"
       inkscape:connector-curvature="0"
       inkscape:original-d="M 24.411956,20.885755 24.174668,10.01844"
       inkscape:path-effect="#path-effect4240"
       id="path4238"
       d="M 24.411956,20.885755 24.174668,10.01844"
       style="fill:#000000;fill-opacity:1;fill-rule:evenodd;stroke:#000000;stroke-width:1px;stroke-linecap:butt;stroke-linejoin:miter;stroke-opacity:1" />
    <path
       sodipodi:nodetypes="cc"
       inkscape:connector-curvature="0"
       inkscape:original-d="m 16.913411,15.10785 7.355932,5.398004"
       inkscape:path-effect="#path-effect4244"
       id="path4242"
       d="m 16.913411,15.10785 7.355932,5.398004"
       style="fill:#000000;fill-opacity:1;fill-rule:evenodd;stroke:#000000;stroke-width:1px;stroke-linecap:butt;stroke-linejoin:miter;stroke-opacity:1" />
  </g>
  <path
     style="fill:none;fill-rule:evenodd;stroke:#000000;stroke-width:1.46342075px;stroke-linecap:butt;stroke-linejoin:miter;stroke-opacity:1"
     d="M 55.192993,1.0045334 44.775421,9.3385919"
     id="path4246"
     inkscape:path-effect="#path-effect4248"
     inkscape:original-d="M 55.192993,1.0045334 44.775421,9.3385919"
     inkscape:connector-curvature="0" />
  <path
     style="fill:#000000;fill-opacity:1;stroke:#000000;stroke-width:0.24290065;stroke-linecap:round;stroke-linejoin:round;stroke-miterlimit:4;stroke-dasharray:none;stroke-opacity:1"
     d="m 14.800259,12.295997 c -2.252064,-1.646903 -4.082927,-3.033184 -4.068586,-3.0806237 0.01434,-0.047444 1.802289,-1.3383407 3.973214,-2.8686677 l 3.947136,-2.7824122 0.02731,0.4396599 c 0.04659,0.7501305 0.273436,11.2314647 0.24369,11.2597207 -0.01545,0.01468 -1.870695,-1.320774 -4.122761,-2.967677 z"
     id="path4339"
     inkscape:connector-curvature="0" />
  <path
     style="fill:#000000;fill-opacity:1;stroke:#000000;stroke-width:2;stroke-linecap:round;stroke-linejoin:round;stroke-miterlimit:4;stroke-dasharray:none;stroke-opacity:1"
     d="M 16.64606,61.343838 C 16.887293,60.969243 30.431076,38.17735 30.645065,37.990956 l -0.309047,-0.308657 c 0.595762,-8.452727 0.351916,-16.907721 0.27684,-25.363874 l 0.002,-2.084116 -1.001965,-0.0731 c -0.55108,-0.0402 -2.876532,-0.08611 -5.16767,-0.101985 l -4.165703,-0.02889 0.08546,3.613148 0.08546,3.613148 -0.642915,0.271635 L 19.0967,17.25663 14.016341,13.536241 C 11.222199,11.490033 8.7691526,9.4849501 8.6481818,9.3710081 8.1937648,8.9429927 8.7786019,8.7348064 13.879027,5.1553991 c 2.651848,-1.8610263 4.035161,-3.004457 4.58997,-3.5015415 0.0041,-0.1021468 0.664239,-0.5932218 1.109993,-0.5932218 0.65385,0 0.459545,0.4125756 0.520116,0.8021675 0.03375,0.2170926 0.08205,1.8022979 0.107327,3.5226778 0.02527,1.7203814 0.07964,3.1616387 0.120791,3.2027959 0.04115,0.041151 5.415983,0.1546807 11.944057,0.2522762 11.755566,0.1757466 11.871047,0.1751642 12.059462,-0.06082 0.104635,-0.1310493 0.255262,-0.2585133 0.334734,-0.2832568 0.07948,-0.024746 2.03057,-1.5479377 4.335771,-3.3848733 2.191278,-1.0400853 4.345249,-3.5300095 5.577395,-4.47470218 0.122357,-0.10154238 0.729382,-0.1113473 1.026716,0.27552014 0.21296,0.27708394 -0.0958,0.63088214 -0.09924,0.66883744 -0.0034,0.037961 -2.189539,1.8095081 -4.858013,3.9367849 -2.668473,2.1272768 -4.848138,3.9034877 -4.843703,3.9471356 0.0044,0.043654 1.944607,1.605701 4.311488,3.471226 2.36688,1.865525 4.80551,3.291631 5.071722,3.883951 0.485597,1.08045 0.151184,1.566126 0.02845,1.566126 -0.05707,0 -3.773892,-2.702628 -6.381517,-4.773356 -1.57032,-1.134958 -3.860242,-2.872476 -4.859964,-3.251613 l -6.031714,-0.0904 -6.031713,-0.0904 0.08005,6.240231 c 0.04402,3.432129 -0.533112,10.314183 -0.48852,14.839727 -0.239043,9.487949 -5.724508,14.028759 -8.218154,20.373292 -3.628972,5.642183 -5.88457,10.195799 -5.957376,10.271064 -0.0829,-0.409985 -0.05694,-0.314625 -0.681095,-0.561189 z"
     id="path4341"
     inkscape:connector-curvature="0"
     sodipodi:nodetypes="cscccsscccccssscscscsscccscscsssccccscccc" />
</svg>
