<?xml version="1.0" encoding="UTF-8" standalone="no"?>
<!-- Generator: Adobe Illustrator 16.0.0, SVG Export Plug-In . SVG Version: 6.00 Build 0)  -->

<svg
   xmlns:dc="http://purl.org/dc/elements/1.1/"
   xmlns:cc="http://creativecommons.org/ns#"
   xmlns:rdf="http://www.w3.org/1999/02/22-rdf-syntax-ns#"
   xmlns:svg="http://www.w3.org/2000/svg"
   xmlns="http://www.w3.org/2000/svg"
   xmlns:sodipodi="http://sodipodi.sourceforge.net/DTD/sodipodi-0.dtd"
   xmlns:inkscape="http://www.inkscape.org/namespaces/inkscape"
   version="1.1"
   id="svg2"
   inkscape:output_extension="org.inkscape.output.svg.inkscape"
   sodipodi:docname="transport_train_station_black.svg"
   inkscape:version="0.91 r13725"
   sodipodi:version="0.32"
   x="0px"
   y="0px"
   width="680"
   height="680"
   viewBox="0 0 680 680"
   enable-background="new 0 0 580 580"
   xml:space="preserve"><metadata
     id="metadata11"><rdf:RDF><cc:Work
         rdf:about=""><dc:format>image/svg+xml</dc:format><dc:type
           rdf:resource="http://purl.org/dc/dcmitype/StillImage" /><dc:title></dc:title></cc:Work></rdf:RDF></metadata><defs
     id="defs3"><inkscape:perspective
       inkscape:vp_z="580 : 290 : 1"
       inkscape:vp_y="0 : 1000 : 0"
       inkscape:vp_x="0 : 290 : 1"
       sodipodi:type="inkscape:persp3d"
       id="perspective24"
       inkscape:persp3d-origin="290 : 193.33333 : 1" /><inkscape:perspective
       inkscape:vp_z="612.164 : 306.58551 : 1"
       inkscape:vp_y="0 : 1000 : 0"
       inkscape:vp_x="0 : 306.58551 : 1"
       sodipodi:type="inkscape:persp3d"
       id="perspective2683"
       inkscape:persp3d-origin="306.082 : 204.39034 : 1" /></defs><sodipodi:namedview
     showgrid="false"
     inkscape:cy="188.97759"
     inkscape:cx="345.85404"
     inkscape:zoom="0.70710678"
     pagecolor="#ffffff"
     bordercolor="#666666"
     guidetolerance="10.0"
     objecttolerance="10.0"
     gridtolerance="10.0"
     borderopacity="1.0"
     id="base"
     inkscape:current-layer="svg2"
     inkscape:window-y="-8"
     inkscape:window-x="-8"
     inkscape:pageopacity="0.0"
     inkscape:pageshadow="2"
     inkscape:window-width="1920"
     inkscape:window-height="1137"
     showguides="true"
     inkscape:guide-bbox="true"
     inkscape:window-maximized="1"><sodipodi:guide
       position="340.82547,-97.580736"
       orientation="1,0"
       id="guide8071" /><sodipodi:guide
       position="-31.112698,333.7544"
       orientation="0,1"
       id="guide8073" /></sodipodi:namedview><g
     id="g3584"
     transform="translate(0,100)" /><path
     fill="param(fill) #FFF"
     stroke="param(outline) #000"
     stroke-width="param(outline-width) 1"
     d="m 455.7299,486.58674 c 28.344,-4.567 56.564,-34.117 56.564,-70.145 l 0,-263.405 c 0,-37.188 -31.305,-71.319001 -73.807,-71.319001 l -90.566,-0.069 -91.257,0.069 c -42.503,0 -73.773,34.132001 -73.773,71.319001 l 0,263.405 c 0,36.027 28.187,65.577 56.53,70.145 l -85.002,127.505 49.066,0 60.781,-89.115 83.241,0 0.068,0 0.069,0 83.24,0 60.781,89.115 49.066,0 -85.001,-127.505 z m -156.046,-377.779 c 0,-6.466 5.627,-11.887001 12.094,-11.887001 l 35.729,0 0.068,0 0.069,0 35.729,0 c 6.467,0 12.094,5.420001 12.094,11.887001 l 0,20.94 c 0,6.466 -5.319,12.024 -12.094,12.024 l -35.729,0 -0.069,0 -0.068,0 -35.729,0 c -6.774,0 -12.094,-5.558 -12.094,-12.024 l 0,-20.94 z m -44.574,339.355 c -17.866,0 -32.343,-14.478 -32.343,-32.342 0,-17.867 14.477,-32.344 32.343,-32.344 17.866,0 32.377,14.477 32.377,32.344 0,17.865 -14.512,32.342 -32.377,32.342 z m 92.466,-171.111 -0.068,0 -88.39,0 c -20.324,0 -36.953,-13.979 -36.766,-36.766 l 0,-47.408 c 0,-19.707 12.747,-36.903 36.766,-36.903 l 88.39,0 0.138,0 88.389,0 c 24.019,0 36.766,17.196 36.766,36.903 l 0,47.408 c 0.188,22.787 -16.442,36.766 -36.766,36.766 l -88.389,0 -0.07,0 z m 59.364,138.769 c 0,-17.867 14.477,-32.344 32.342,-32.344 17.866,0 32.343,14.477 32.343,32.344 0,17.864 -14.477,32.342 -32.343,32.342 -17.865,0 -32.342,-14.477 -32.342,-32.342 z"
     id="path9"
     inkscape:connector-curvature="0" /><path
     inkscape:connector-curvature="0"
     fill="param(fill) #FFF"
     stroke="param(outline) #000"
     stroke-width="param(outline-width) 1"
     d="m 562.75494,56.639318 -442.443,0 c -26.370422,0 -47.824555,21.28147 -47.824555,47.439662 l 0,486.40442 c 0,26.15818 21.454133,47.43965 47.824555,47.43965 l 442.44128,0 c 26.37041,0 47.82455,-21.28147 47.82455,-47.43965 l 0,-486.40442 c 0.002,-26.158192 -21.4524,-47.439662 -47.82283,-47.439662 z M 584.57659,590.4834 c 0,11.93557 -9.7875,21.64602 -21.82165,21.64602 l -442.443,0 c -12.03242,0 -21.821645,-9.70873 -21.821645,-21.64602 l 0,-486.40442 c 0,-11.935576 9.789225,-21.646026 21.821645,-21.646026 l 442.443,0 c 12.03242,0 21.82165,9.71045 21.82165,21.646026 z"
     id="path12"
     sodipodi:nodetypes="ssssccscssssssssss" /></svg>