<?xml version="1.0" encoding="UTF-8" standalone="no"?>
<!-- Generator: Adobe Illustrator 16.0.0, SVG Export Plug-In . SVG Version: 6.00 Build 0)  -->

<svg
   xmlns:dc="http://purl.org/dc/elements/1.1/"
   xmlns:cc="http://creativecommons.org/ns#"
   xmlns:rdf="http://www.w3.org/1999/02/22-rdf-syntax-ns#"
   xmlns:svg="http://www.w3.org/2000/svg"
   xmlns="http://www.w3.org/2000/svg"
   xmlns:sodipodi="http://sodipodi.sourceforge.net/DTD/sodipodi-0.dtd"
   xmlns:inkscape="http://www.inkscape.org/namespaces/inkscape"
   version="1.1"
   id="svg2"
   inkscape:output_extension="org.inkscape.output.svg.inkscape"
   sodipodi:docname="transport_train_station_blue.svg"
   inkscape:version="0.91 r13725"
   sodipodi:version="0.32"
   x="0px"
   y="0px"
   width="680"
   height="680"
   viewBox="0 0 680 680"
   enable-background="new 0 0 580 580"
   xml:space="preserve"><metadata
     id="metadata11"><rdf:RDF><cc:Work
         rdf:about=""><dc:format>image/svg+xml</dc:format><dc:type
           rdf:resource="http://purl.org/dc/dcmitype/StillImage" /><dc:title></dc:title></cc:Work></rdf:RDF></metadata><defs
     id="defs3"><inkscape:perspective
       inkscape:vp_z="580 : 290 : 1"
       inkscape:vp_y="0 : 1000 : 0"
       inkscape:vp_x="0 : 290 : 1"
       sodipodi:type="inkscape:persp3d"
       id="perspective24"
       inkscape:persp3d-origin="290 : 193.33333 : 1" /><inkscape:perspective
       inkscape:vp_z="612.164 : 306.58551 : 1"
       inkscape:vp_y="0 : 1000 : 0"
       inkscape:vp_x="0 : 306.58551 : 1"
       sodipodi:type="inkscape:persp3d"
       id="perspective2683"
       inkscape:persp3d-origin="306.082 : 204.39034 : 1" /></defs><sodipodi:namedview
     showgrid="false"
     inkscape:cy="75.840505"
     inkscape:cx="-102.29683"
     inkscape:zoom="0.70710678"
     pagecolor="#ffffff"
     bordercolor="#666666"
     guidetolerance="10.0"
     objecttolerance="10.0"
     gridtolerance="10.0"
     borderopacity="1.0"
     id="base"
     inkscape:current-layer="svg2"
     inkscape:window-y="-8"
     inkscape:window-x="-8"
     inkscape:pageopacity="0.0"
     inkscape:pageshadow="2"
     inkscape:window-width="1920"
     inkscape:window-height="1137"
     showguides="true"
     inkscape:guide-bbox="true"
     inkscape:window-maximized="1"><sodipodi:guide
       position="340.82547,-97.580736"
       orientation="1,0"
       id="guide8071" /><sodipodi:guide
       position="-31.112698,333.7544"
       orientation="0,1"
       id="guide8073" /><sodipodi:guide
       position="0,412.95036"
       orientation="1,0"
       id="guide8074" /><sodipodi:guide
       position="680.23672,50.911688"
       orientation="1,0"
       id="guide8076" /><sodipodi:guide
       position="43.840621,678.82251"
       orientation="0,1"
       id="guide8078" /><sodipodi:guide
       position="547.30065,-1.4142136"
       orientation="0,1"
       id="guide8080" /><sodipodi:guide
       position="70.710678,313.95541"
       orientation="1,0"
       id="guide8082" /><sodipodi:guide
       position="608.11183,-295.57064"
       orientation="1,0"
       id="guide8084" /><sodipodi:guide
       position="240.41631,629.32504"
       orientation="0,1"
       id="guide8086" /><sodipodi:guide
       position="28.284271,49.497475"
       orientation="0,1"
       id="guide8088" /><sodipodi:guide
       position="487.90368,560.02857"
       orientation="0,1"
       id="guide8089" /><sodipodi:guide
       position="151.32085,-53.740115"
       orientation="1,0"
       id="guide8091" /><sodipodi:guide
       position="507.70267,725.49156"
       orientation="1,0"
       id="guide8093" /><sodipodi:guide
       position="179.60512,-125.86501"
       orientation="1,0"
       id="guide8095" /></sodipodi:namedview><g
     id="g3584"
     transform="translate(0,100)" /><rect
     style="fill:#ffffff;fill-opacity:1;stroke:#ffffff;stroke-width:1;stroke-linecap:round;stroke-linejoin:round;stroke-miterlimit:4;stroke-dasharray:none;stroke-opacity:1"
     id="rect12578"
     width="494.97476"
     height="535.98694"
     x="92.752312"
     y="71.302383"
     ry="1.84118" /><path
     d="m 451.00977,490.64439 c 28.24519,-4.19125 56.36684,-31.31004 56.36684,-64.37385 l 0,-241.73343 c 0,-34.12837 -31.19588,-65.45125 -73.54972,-65.45125 l -90.25035,-0.0633 -90.93893,0.0633 c -42.35483,0 -73.51586,31.3238 -73.51586,65.45125 l 0,241.73343 c 0,33.06289 28.08874,60.18169 56.33296,64.37385 l -84.70571,117.01457 48.89495,0 60.56916,-81.7831 82.95087,0 0.0679,0 0.0687,0 82.94986,0 60.56915,81.7831 48.89498,0 -84.70481,-117.01457 z M 295.50767,143.94703 c 0,-5.93403 5.60739,-10.909 12.05185,-10.909 l 35.60446,0 0.0679,0 0.0687,0 35.60449,0 c 6.44443,0 12.05182,4.97406 12.05182,10.909 l 0,19.21716 c 0,5.93402 -5.30045,11.03474 -12.05182,11.03474 l -35.60449,0 -0.0687,0 -0.0679,0 -35.60446,0 c -6.75039,0 -12.05185,-5.10072 -12.05185,-11.03474 l 0,-19.21716 z m -44.41864,311.43468 c -17.80373,0 -32.23026,-13.28681 -32.23026,-29.68107 0,-16.39699 14.42653,-29.68291 32.23026,-29.68291 17.80373,0 32.26415,13.28592 32.26415,29.68291 0,16.39517 -14.46141,29.68107 -32.26415,29.68107 z m 92.1437,-157.0329 -0.0678,0 -88.08191,0 c -20.25316,0 -36.8242,-12.82889 -36.63783,-33.74109 l 0,-43.50751 c 0,-18.08562 12.70256,-33.86684 36.63783,-33.86684 l 88.08191,0 0.13754,0 88.08089,0 c 23.93529,0 36.63787,15.78122 36.63787,33.86684 l 0,43.50751 c 0.18736,20.9122 -16.3847,33.74109 -36.63787,33.74109 l -88.08089,0 -0.0696,0 z m 59.1571,127.35183 c 0,-16.39699 14.42654,-29.68291 32.22925,-29.68291 17.80375,0 32.23028,13.28592 32.23028,29.68291 0,16.39426 -14.42653,29.68107 -32.23028,29.68107 -17.80271,0 -32.22925,-13.2859 -32.22925,-29.68107 z"
     id="path9"
     inkscape:connector-curvature="0"
     style="fill:#5975ff;fill-opacity:1;stroke:#ffffff;stroke-width:0.95630884;stroke-opacity:1" /><path
     inkscape:connector-curvature="0"
     stroke-width="param(outline-width) 1"
     d="m 563.36154,50.189516 -442.443,0 c -26.370422,0 -47.824555,21.28147 -47.824555,47.439662 l 0,486.404422 c 0,26.15818 21.454133,47.43965 47.824555,47.43965 l 442.44128,0 c 26.37041,0 47.82455,-21.28147 47.82455,-47.43965 l 0,-486.404422 c 0.002,-26.158192 -21.4524,-47.439662 -47.82283,-47.439662 z M 585.18319,584.0336 c 0,11.93557 -9.7875,21.64602 -21.82165,21.64602 l -442.443,0 c -12.03242,0 -21.821645,-9.70873 -21.821645,-21.64602 l 0,-486.404422 c 0,-11.935576 9.789225,-21.646026 21.821645,-21.646026 l 442.443,0 c 12.03242,0 21.82165,9.71045 21.82165,21.646026 z"
     id="path12"
     sodipodi:nodetypes="ssssccscssssssssss"
     style="fill:#5975ff;fill-opacity:1;stroke:#ffffff;stroke-opacity:1" /></svg>